<svg xmlns="http://www.w3.org/2000/svg" width="116" height="21" fill="none" viewBox="0 0 116 21">
  <path fill="#fff" fill-rule="evenodd" d="m31.06.746-9.866 19.286h-9.266l4.128-7.993h-.185c-3.406 4.422-8.488 7.332-15.729 7.993V12.15s4.632-.274 7.355-3.137H.142V.746h8.267v6.8l.185-.001L11.972.746h6.252v6.756h.186L21.915.746h9.145Z" clip-rule="evenodd"/>
  <path fill="#fff" d="M84.856 17.903h2.663V2.621h-2.663v15.282Z"/>
  <path fill="#fff" fill-rule="evenodd" d="M70.179 17.747c.578.24 1.167.361 1.765.361.988 0 1.872-.24 2.653-.722a4.881 4.881 0 0 0 1.814-1.99c.429-.85.643-1.816.643-2.896 0-1.079-.22-2.044-.663-2.896-.442-.852-1.056-1.512-1.843-1.98-.787-.474-1.68-.709-2.682-.702-.637 0-1.248.124-1.834.37a3.882 3.882 0 0 0-1.55 1.159V2.63H65.81v15.272h2.652l-.005-1.426a4.564 4.564 0 0 0 1.722 1.27Zm2.73-2.467a2.8 2.8 0 0 1-1.492.4c-.552 0-1.06-.137-1.521-.41a3.095 3.095 0 0 1-1.102-1.141c-.267-.481-.4-1.027-.4-1.638-.007-.612.123-1.158.39-1.639.273-.487.64-.865 1.102-1.131a2.883 2.883 0 0 1 1.531-.4 2.738 2.738 0 0 1 1.492.39c.442.26.78.634 1.015 1.122.24.48.36 1.034.36 1.658 0 .624-.12 1.176-.36 1.658a2.674 2.674 0 0 1-1.015 1.13Z" clip-rule="evenodd"/>
  <path fill="#fff" d="M34.916 3.548h3.043l2.722 9.94 2.896-9.94h2.535l3.14 9.74 2.614-9.74h2.79L50.54 17.903h-2.623l-3.194-9.516-2.931 9.516h-2.653L34.916 3.548Z"/>
  <path fill="#fff" fill-rule="evenodd" d="M59.15 18.157c-1.06.006-2.017-.228-2.868-.702a5.273 5.273 0 0 1-2-2c-.48-.851-.721-1.823-.721-2.916 0-1.06.247-2.018.741-2.877a5.321 5.321 0 0 1 2.01-2.009c.844-.48 1.787-.721 2.827-.721 1.17 0 2.194.26 3.072.78a4.822 4.822 0 0 1 1.98 2.214c.442.949.601 2.038.478 3.267h-8.354c.024.49.146.935.367 1.336.247.442.591.787 1.033 1.034.443.247.937.37 1.483.37a3.377 3.377 0 0 0 1.16-.214 2.74 2.74 0 0 0 .907-.576c.254-.24.433-.513.537-.819h2.789a4.538 4.538 0 0 1-1.014 2 5.189 5.189 0 0 1-1.912 1.355c-.767.325-1.606.484-2.516.478Zm-2.46-7.647a2.819 2.819 0 0 0-.324.878h5.538a2.481 2.481 0 0 0-.367-1.083 2.373 2.373 0 0 0-.955-.887 2.86 2.86 0 0 0-1.366-.322c-.54 0-1.03.123-1.472.37a2.752 2.752 0 0 0-1.054 1.044Z" clip-rule="evenodd"/>
  <path fill="#fff" d="M79.015 7.156c0-.871.198-1.645.595-2.321a4.094 4.094 0 0 1 1.667-1.59c.722-.383 1.564-.582 2.526-.595v2.37c-.448.007-.832.101-1.15.283a1.764 1.764 0 0 0-.722.77 2.57 2.57 0 0 0-.252 1.083h2.066v2.253h-2.068v8.494h-2.662V9.41h-1.717V7.156h1.717Z"/>
  <path fill="#fff" fill-rule="evenodd" d="M94.287 18.137c-1.086 0-2.058-.237-2.916-.712a5.272 5.272 0 0 1-2.01-1.99c-.48-.85-.721-1.816-.721-2.896 0-1.085.24-2.054.722-2.906a5.164 5.164 0 0 1 2.009-2c.858-.474 1.83-.711 2.916-.711 1.092 0 2.067.237 2.925.712a5.079 5.079 0 0 1 2.019 1.99c.481.851.725 1.823.732 2.915-.007 1.08-.25 2.045-.732 2.897a5.098 5.098 0 0 1-2.009 1.99c-.865.474-1.843.711-2.935.711Zm0-2.448c.572 0 1.079-.13 1.52-.39a2.687 2.687 0 0 0 1.025-1.112c.24-.48.36-1.03.36-1.648 0-.624-.12-1.176-.36-1.658a2.611 2.611 0 0 0-1.024-1.111c-.442-.267-.95-.4-1.521-.4a2.87 2.87 0 0 0-1.512.4 2.63 2.63 0 0 0-1.014 1.111c-.24.482-.358 1.034-.352 1.658 0 .618.12 1.167.361 1.648.248.475.586.846 1.015 1.112.435.26.936.39 1.502.39Z" clip-rule="evenodd"/>
  <path fill="#fff" d="M102.839 7.156h-2.964l3.208 10.747h2.594l2.111-6.864 2.278 6.864h2.555l3.219-10.747h-2.682l-1.826 6.69-2.017-6.69h-2.594l-2.008 6.837-1.874-6.837Z"/>
</svg>
