<svg xmlns="http://www.w3.org/2000/svg" width="116" height="19" fill="none"><g fill="#fff" clip-path="url(#a)"><path d="M9.07.612c.345-.816 1.515-.816 1.86 0l2.028 4.82c.145.343.473.579.849.608l5.266.417c.892.071 1.254 1.171.574 1.746L15.635 11.6a.987.987 0 0 0-.324.985l1.225 5.077c.208.86-.74 1.54-1.503 1.08l-4.508-2.721a1.016 1.016 0 0 0-1.05 0l-4.508 2.72c-.764.461-1.711-.219-1.503-1.079l1.225-5.077a.987.987 0 0 0-.324-.985L.353 8.203c-.68-.575-.318-1.675.574-1.746l5.266-.417c.377-.03.704-.265.85-.609L9.07.612ZM33.07.612c.345-.816 1.515-.816 1.86 0l2.028 4.82c.145.343.473.579.849.608l5.266.417c.892.071 1.254 1.171.574 1.746L39.635 11.6a.987.987 0 0 0-.324.985l1.225 5.077c.208.86-.74 1.54-1.503 1.08l-4.508-2.721a1.016 1.016 0 0 0-1.05 0l-4.508 2.72c-.764.461-1.711-.219-1.503-1.079l1.225-5.077a.987.987 0 0 0-.324-.985l-4.012-3.396c-.68-.575-.318-1.675.574-1.746l5.266-.417c.377-.03.704-.265.85-.609L33.07.612ZM57.07.612c.344-.816 1.515-.816 1.859 0l2.029 4.82c.145.343.472.579.849.608l5.266.417c.892.071 1.254 1.171.574 1.746L63.635 11.6a.987.987 0 0 0-.325.985l1.226 5.077c.208.86-.74 1.54-1.503 1.08l-4.509-2.721a1.016 1.016 0 0 0-1.049 0l-4.508 2.72c-.764.461-1.711-.219-1.503-1.079l1.225-5.077a.987.987 0 0 0-.324-.985l-4.012-3.396c-.68-.575-.318-1.675.574-1.746l5.266-.417c.376-.03.704-.265.849-.609L57.07.612ZM81.07.612c.345-.816 1.515-.816 1.859 0l2.029 4.82c.145.343.472.579.849.608l5.266.417c.892.071 1.254 1.171.574 1.746L87.635 11.6a.987.987 0 0 0-.325.985l1.226 5.077c.208.86-.74 1.54-1.503 1.08l-4.509-2.721a1.016 1.016 0 0 0-1.049 0l-4.508 2.72c-.764.461-1.711-.219-1.504-1.079l1.226-5.077a.987.987 0 0 0-.324-.985l-4.012-3.396c-.68-.575-.318-1.675.574-1.746l5.266-.417c.376-.03.704-.265.849-.609L81.07.612ZM105.071.612c.343-.816 1.514-.816 1.858 0l2.029 4.82c.145.343.472.579.848.608l5.266.417c.893.071 1.254 1.171.575 1.746l-4.012 3.396a.988.988 0 0 0-.325.985l1.226 5.077c.208.86-.739 1.54-1.503 1.08l-4.509-2.721a1.016 1.016 0 0 0-1.049 0l-4.508 2.72c-.764.461-1.711-.219-1.504-1.079l1.226-5.077a.985.985 0 0 0-.324-.985l-4.012-3.396c-.68-.575-.318-1.675.574-1.746l5.266-.417c.376-.03.704-.265.849-.609l2.029-4.819Z"/></g><defs><clipPath id="a"><path fill="#fff" d="M0 0h116v18.889H0z"/></clipPath></defs></svg>